<svg width="1200" height="900" viewBox="0 0 1200 900" fill="none" xmlns="http://www.w3.org/2000/svg">
  <rect width="1200" height="900" rx="40" fill="#FFF7F7"/>
  <circle cx="140" cy="166" r="70" fill="#FEE2E2"/>
  <circle cx="1034" cy="748" r="96" fill="#FCE7F3"/>
  <rect x="124" y="126" width="952" height="648" rx="34" fill="white" stroke="#F4D4D8" stroke-width="4"/>
  <rect x="172" y="176" width="330" height="48" rx="14" fill="#991B1B"/>
  <rect x="172" y="248" width="246" height="20" rx="10" fill="#FDA4AF"/>
  <rect x="172" y="320" width="264" height="168" rx="28" fill="#FEF2F2"/>
  <circle cx="236" cy="386" r="34" fill="#FCA5A5"/>
  <path d="M236 366V406" stroke="white" stroke-width="10" stroke-linecap="round"/>
  <path d="M216 386H256" stroke="white" stroke-width="10" stroke-linecap="round"/>
  <rect x="282" y="364" width="112" height="16" rx="8" fill="#B91C1C"/>
  <rect x="282" y="394" width="86" height="12" rx="6" fill="#F87171"/>
  <rect x="470" y="320" width="264" height="168" rx="28" fill="#EFF6FF"/>
  <rect x="504" y="360" width="102" height="80" rx="18" fill="#93C5FD"/>
  <polygon points="546,382 580,400 546,418" fill="#1D4ED8"/>
  <rect x="632" y="364" width="66" height="16" rx="8" fill="#1D4ED8"/>
  <rect x="632" y="394" width="48" height="12" rx="6" fill="#60A5FA"/>
  <rect x="768" y="320" width="264" height="168" rx="28" fill="#ECFDF5"/>
  <rect x="804" y="360" width="192" height="26" rx="13" fill="#22C55E"/>
  <rect x="804" y="404" width="156" height="18" rx="9" fill="#86EFAC"/>
  <rect x="172" y="530" width="860" height="182" rx="28" fill="#0F172A"/>
  <rect x="220" y="580" width="148" height="16" rx="8" fill="#F9FAFB"/>
  <rect x="220" y="610" width="112" height="12" rx="6" fill="#CBD5E1"/>
  <rect x="432" y="568" width="170" height="108" rx="22" fill="#1E293B"/>
  <rect x="470" y="606" width="96" height="14" rx="7" fill="#F472B6"/>
  <rect x="662" y="568" width="132" height="108" rx="22" fill="#1E293B"/>
  <rect x="694" y="606" width="70" height="14" rx="7" fill="#FACC15"/>
  <rect x="848" y="568" width="132" height="108" rx="22" fill="#1E293B"/>
  <rect x="880" y="606" width="68" height="14" rx="7" fill="#60A5FA"/>
</svg>
