<svg width="1200" height="900" viewBox="0 0 1200 900" fill="none" xmlns="http://www.w3.org/2000/svg">
  <rect width="1200" height="900" rx="40" fill="#F6F8FF"/>
  <circle cx="1032" cy="160" r="76" fill="#E0E7FF"/>
  <rect x="122" y="126" width="956" height="648" rx="34" fill="white" stroke="#D6DDF8" stroke-width="4"/>
  <rect x="172" y="176" width="342" height="48" rx="14" fill="#312E81"/>
  <rect x="172" y="248" width="252" height="20" rx="10" fill="#A5B4FC"/>
  <rect x="172" y="320" width="364" height="326" rx="28" fill="#EEF2FF" stroke="#C7D2FE" stroke-width="3"/>
  <rect x="214" y="364" width="128" height="128" rx="24" fill="#C7D2FE"/>
  <path d="M258 398H312V462H244V412H258V398Z" fill="#4338CA"/>
  <path d="M376 426H484" stroke="#4F46E5" stroke-width="14" stroke-linecap="round"/>
  <path d="M452 392L498 426L452 460" stroke="#4F46E5" stroke-width="14" stroke-linecap="round" stroke-linejoin="round"/>
  <rect x="582" y="320" width="448" height="326" rx="28" fill="#0F172A"/>
  <rect x="634" y="372" width="180" height="18" rx="9" fill="#F8FAFC"/>
  <rect x="634" y="416" width="132" height="12" rx="6" fill="#94A3B8"/>
  <rect x="634" y="470" width="316" height="74" rx="22" fill="#1E293B"/>
  <rect x="672" y="500" width="120" height="16" rx="8" fill="#818CF8"/>
  <rect x="824" y="500" width="86" height="16" rx="8" fill="#22C55E"/>
  <rect x="172" y="678" width="858" height="48" rx="18" fill="#E0E7FF"/>
  <rect x="210" y="694" width="180" height="16" rx="8" fill="#4338CA"/>
  <rect x="850" y="690" width="140" height="24" rx="12" fill="#4F46E5"/>
</svg>
